<svg xmlns="http://www.w3.org/2000/svg" xmlns:xlink="http://www.w3.org/1999/xlink" width="500" zoomAndPan="magnify" viewBox="0 0 375 374.999991" height="500" preserveAspectRatio="xMidYMid meet" version="1.0"><defs><g/></defs><g fill="#ffffff" fill-opacity="1"><g transform="translate(107.605774, 258.262935)"><g><path d="M 77.332031 -149.152344 C 35.988281 -149.152344 1.835938 -115.003906 1.835938 -73.046875 C 1.835938 -31.699219 35.988281 2.601562 77.332031 2.601562 C 119.292969 2.601562 153.59375 -31.699219 153.59375 -73.046875 C 153.59375 -115.003906 119.292969 -149.152344 77.332031 -149.152344 Z M 77.332031 -24.960938 C 50.992188 -24.960938 29.402344 -46.707031 29.402344 -73.046875 C 29.402344 -99.996094 50.992188 -121.589844 77.332031 -121.589844 C 103.976562 -121.589844 126.03125 -99.996094 126.03125 -73.046875 C 126.03125 -46.707031 103.976562 -24.960938 77.332031 -24.960938 Z M 77.332031 -117.761719 C 52.832031 -117.761719 32.769531 -97.546875 32.769531 -73.046875 C 32.769531 -48.238281 52.832031 -28.484375 77.332031 -28.484375 C 102.140625 -28.484375 122.203125 -48.238281 122.203125 -73.046875 C 122.203125 -97.546875 102.140625 -117.761719 77.332031 -117.761719 Z M 77.332031 -55.894531 C 68.453125 -55.894531 60.335938 -64.011719 60.335938 -73.046875 C 60.335938 -82.539062 68.453125 -90.195312 77.332031 -90.195312 C 86.828125 -90.195312 94.789062 -82.539062 94.789062 -73.046875 C 94.789062 -64.011719 86.828125 -55.894531 77.332031 -55.894531 Z M 77.332031 -55.894531 "/></g></g></g></svg>